PathFileType	4	(X/Y/Z)	Patient4_TMGait_0pt5_02_left_21.trc.trc
DataRate	CameraRate	NumFrames	NumMarkers	Units	OrigDataRate	OrigDataStartFrame	OrigNumFrames
74.468085106383	74.468085106383	4	33	mm	74.468085106383	106	       141
Frame#	Time	Sacral			L.Shoulder			Chest			R.Shoulder			Neck			R.ASIS			L.ASIS			R.Thigh.Superior			R.Thigh.Lateral			R.Thigh.Inferior			R.Patella			L.Thigh.Superior			L.Thigh.Lateral			L.Thigh.Inferior			L.Patella			L.Shank.Superior			L.Shank.Lateral			L.Shank.Inferior			R.Shank.Superior			R.Shank.Lateral			R.Shank.Inferior			R.Heel			R.Midfoot.Superior			R.Midfoot.Lateral			R.Toe			L.Heel			L.Midfoot.Lateral			L.Midfoot.Superior			L.Toe			L.Elbow			L.Wrist			R.Elbow			R.Wrist			
		X1	Y1	Z1	X2	Y2	Z2	X3	Y3	Z3	X4	Y4	Z4	X5	Y5	Z5	X6	Y6	Z6	X7	Y7	Z7	X8	Y8	Z8	X9	Y9	Z9	X10	Y10	Z10	X11	Y11	Z11	X12	Y12	Z12	X13	Y13	Z13	X14	Y14	Z14	X15	Y15	Z15	X16	Y16	Z16	X17	Y17	Z17	X18	Y18	Z18	X19	Y19	Z19	X20	Y20	Z20	X21	Y21	Z21	X22	Y22	Z22	X23	Y23	Z23	X24	Y24	Z24	X25	Y25	Z25	X26	Y26	Z26	X27	Y27	Z27	X28	Y28	Z28	X29	Y29	Z29	X30	Y30	Z30	X31	Y31	Z31	X32	Y32	Z32	X33	Y33	Z33	

106	27.970000000000	549.735041354736	1012.412230326228	555.827141622859	731.743584304708	1445.044391983109	391.102301334323	841.639248236449	1358.719730593335	539.017832399412	776.217318803788	1424.948551267321	724.080126271984	748.522376156087	1496.146343879241	545.383701271339	780.798692839526	942.657590832643	658.757658178130	753.161264288199	966.257176375659	386.207907828010	811.209874177761	739.854894935500	627.324010641361	729.700272943719	633.381109752912	687.442925125105	802.697486803824	580.279666850523	604.183430593882	800.081324901257	491.608293476317	608.771468930678	833.268610855957	785.350874455438	407.018433937677	787.911459508733	660.707862053233	325.979318741458	892.588469419410	600.780981845312	385.712062026243	919.309176666457	528.910838343959	376.197713214105	891.310083191308	455.401106899118	365.052916747652	802.466428194121	340.265169606271	314.799915113720	872.831446394548	226.716350377034	363.906814225798	770.691523162170	403.646075252535	613.007681682597	697.411769909044	300.093369953280	672.386578054011	734.936202581527	206.563172035306	605.171658907660	594.148347682142	43.817862520827	575.527586619795	769.109528341953	97.379783780730	602.352300565398	682.110199443280	36.153028337223	645.021609821456	889.450471548517	41.928946635723	619.637026520216	762.342753265782	58.539502054492	402.328191957334	827.976972730186	62.795209784839	315.542096159452	910.739157284464	127.754879786087	334.044506194305	1035.292873031056	84.604472972570	290.724610558466	625.764400348729	1114.198818442513	258.304194043485	694.744970331915	862.559724126796	222.974439166823	832.009331171799	1083.321567120893	836.465326801592	1070.916368713782	988.486711628693	818.249900191187	
107	27.983428571429	547.913818620245	1011.845836816418	556.242184171891	728.969044136795	1445.390505567478	392.350011701833	839.354739354560	1358.468753916374	539.508464887545	774.536665320244	1423.831267296371	725.062186554788	746.284738649480	1495.828387644365	546.833097261248	779.256503547472	942.621495997103	658.466954847316	750.805299192488	966.024364577664	385.871918215845	808.891590905049	739.561527003369	627.281817741637	726.821551361262	633.162309741405	687.494387783823	799.511053685172	579.787758429638	604.421448392235	796.244123391740	491.029833011100	609.043722289093	829.201984508791	783.746773585668	405.997214666025	783.151091236912	659.589859869443	324.636342914207	887.467504678704	599.219319193780	384.948964041359	915.053899715802	529.461685582659	375.547402865291	890.428109802749	456.692847503917	363.894638403151	807.963962907607	337.154819483096	312.456756692328	884.161486815894	226.957585109511	361.582175930690	766.304148313943	403.131991581486	613.166679189407	692.201375174251	300.013858346935	672.426135474758	729.134408011850	206.246744684454	605.227486462582	587.401777843849	43.888006108862	575.534868102942	762.409885929995	97.247668839592	602.179210507714	675.371450987174	36.152309586681	645.009876517610	882.702924072641	41.834852617626	619.670272679394	782.097020129056	53.134113525271	398.898548851085	848.519458096918	60.167784655470	312.727609623313	928.018902638463	129.205836591129	331.733152906935	1055.227720704718	91.691526027432	289.864226490933	619.880231646593	1115.775864517485	259.134049282573	684.368584343528	863.160470083328	222.934010516405	835.997500871504	1083.124064002629	835.825207794503	1078.069118888356	998.185983850466	814.577961368726	
108	27.996857142857	546.122299881298	1011.245429933760	556.420503202509	726.286498211941	1445.734876887008	393.435432788092	837.040601669729	1358.250781443393	539.934801633724	772.642378020002	1422.724345812462	725.920465188601	744.007451260992	1495.518963937436	548.129184037529	777.669167763677	942.532328542638	658.080047929266	748.562790945183	965.816879328161	385.442107143367	806.616466876348	739.227683172106	627.077763024051	723.969683685926	632.906116827437	687.360007407414	796.330062086472	579.262426288632	604.460781330694	792.415637446649	490.421862875203	609.084216232791	825.374776256381	782.265511678921	404.957688271093	778.792178041385	658.601182417716	323.275431094842	882.849340346005	597.876243387159	384.068913874509	911.153955562245	529.946063265712	374.903838968797	889.453426682480	457.933344924906	362.844959061020	812.686525146601	334.853470381831	310.343963599137	893.710135694722	227.822469600978	359.576191130745	761.903619625623	402.575270782354	613.137767009456	687.012941176216	299.926650782891	672.357793778374	723.319571248632	205.912423819937	605.179371929849	580.641588902631	43.933841648913	575.529091102243	755.658319710963	97.080211788928	601.911937910794	668.617523124753	36.156254000628	644.993782949800	875.939660459264	41.764409903996	619.697826918901	798.953191351187	49.702551127984	395.871677951532	866.160818230526	58.814822301283	310.392381125422	942.750966661854	131.136693524274	329.876001038839	1072.054798690427	98.232074542826	289.676460010456	614.316086073441	1117.330763804652	259.781898827741	674.290521461353	863.782275168293	222.998515219059	839.444653621252	1082.806991095575	834.651508800866	1084.227890302072	1007.852403704121	810.332265335528	
109	28.010285714286	544.352387155558	1010.648952430439	556.383288081730	723.674115910871	1446.077334706359	394.339617736111	834.703615259689	1358.083980538576	540.271497629025	770.572001071851	1421.672373443683	726.632627666607	741.695318039147	1495.238718396226	549.243064313620	776.036639553113	942.395628756842	657.606071676867	746.431728915205	965.675221300084	384.929348118704	804.313717136410	738.851651790369	626.667225973543	721.094850552535	632.624240786944	687.044807259739	793.081461920130	578.704330282068	604.284884195662	788.529905690560	489.790787254821	608.891409939404	821.949793093657	781.074705873332	403.915195563339	774.973446435231	657.812337520034	321.985819091320	878.918218886391	596.884307338599	383.069084726318	907.775135909619	530.433877518068	374.254020854765	888.486882132082	459.098910854608	361.898760533601	816.504244136860	333.314219196600	308.539826136254	901.329672837386	229.081160185600	357.907248481446	757.429674685211	401.984873671798	612.922405760291	681.801769218011	299.837607776124	672.183289118249	717.466842916333	205.568717293601	605.033847731451	573.868345372969	43.953142800074	575.509357519187	748.854144130553	96.885448156737	601.565332743055	661.847671358135	36.164683019548	644.973292997121	869.160768952590	41.719494749527	619.718611799394	812.540757659732	47.928389178782	393.362194526216	880.489554461457	58.432491713929	308.575335093588	954.665832399192	133.236832833552	328.450288976228	1085.533498812394	103.828179183525	289.959582178776	609.096056104385	1118.832564998931	260.266414761950	664.548660878271	864.394183353479	223.145740238238	842.315582787060	1082.404321189930	832.966320866897	1089.350344393870	1017.480373955268	805.550516315063	
